<?xml version="1.0" encoding="UTF-8" standalone="no"?>
<!-- Created with Inkscape (http://www.inkscape.org/) -->

<svg
   xmlns:dc="http://purl.org/dc/elements/1.1/"
   xmlns:cc="http://creativecommons.org/ns#"
   xmlns:rdf="http://www.w3.org/1999/02/22-rdf-syntax-ns#"
   xmlns:svg="http://www.w3.org/2000/svg"
   xmlns="http://www.w3.org/2000/svg"
   xmlns:sodipodi="http://sodipodi.sourceforge.net/DTD/sodipodi-0.dtd"
   xmlns:inkscape="http://www.inkscape.org/namespaces/inkscape"
   width="64.902946"
   height="53.891491"
   id="svg3044"
   version="1.1"
   inkscape:version="0.48.4 r9939"
   sodipodi:docname="enemy.svg"
   inkscape:export-filename="/home/jeremy/IF/Games/game_jams/ludum_dare/26/assets/sprites/enemy_4.png"
   inkscape:export-xdpi="90"
   inkscape:export-ydpi="90">
  <defs
     id="defs3046" />
  <sodipodi:namedview
     id="base"
     pagecolor="#ffffff"
     bordercolor="#666666"
     borderopacity="1.0"
     inkscape:pageopacity="0.0"
     inkscape:pageshadow="2"
     inkscape:zoom="11.2"
     inkscape:cx="15.790735"
     inkscape:cy="22.484234"
     inkscape:document-units="px"
     inkscape:current-layer="g3270"
     showgrid="false"
     showguides="true"
     inkscape:guide-bbox="true"
     inkscape:window-width="1600"
     inkscape:window-height="880"
     inkscape:window-x="-2"
     inkscape:window-y="-3"
     inkscape:window-maximized="1"
     fit-margin-top="0"
     fit-margin-left="0"
     fit-margin-right="0"
     fit-margin-bottom="0" />
  <metadata
     id="metadata3049">
    <rdf:RDF>
      <cc:Work
         rdf:about="">
        <dc:format>image/svg+xml</dc:format>
        <dc:type
           rdf:resource="http://purl.org/dc/dcmitype/StillImage" />
        <dc:title></dc:title>
      </cc:Work>
    </rdf:RDF>
  </metadata>
  <g
     inkscape:label="Layer 1"
     inkscape:groupmode="layer"
     id="layer1"
     transform="translate(-204.52089,-541.32039)">
    <g
       id="g3236"
       transform="matrix(0.2228346,0,0,0.2228346,154.66385,462.28451)">
      <path
         transform="matrix(5.0337343,0,0,6.8105844,586.60662,301.78681)"
         d="m -34.82143,18.318705 c 0,4.438002 -3.477788,8.035714 -7.767857,8.035714 -4.290069,0 -7.767857,-3.597712 -7.767857,-8.035714 0,-4.438003 3.477788,-8.035715 7.767857,-8.035715 4.290069,0 7.767857,3.597712 7.767857,8.035715 z"
         sodipodi:ry="8.0357141"
         sodipodi:rx="7.7678571"
         sodipodi:cy="18.318705"
         sodipodi:cx="-42.589287"
         id="path3302"
         style="color:#000000;fill:#000000;fill-opacity:1;fill-rule:nonzero;stroke:#000000;stroke-width:2;stroke-linecap:round;stroke-linejoin:round;stroke-miterlimit:4;stroke-opacity:1;stroke-dasharray:none;stroke-dashoffset:0;marker:none;visibility:visible;display:inline;overflow:visible;enable-background:accumulate"
         sodipodi:type="arc" />
      <g
         id="g3270"
         transform="matrix(1.1726448,0,0,1.1726448,-39.566751,-124.13942)">
        <g
           id="g4195">
          <path
             inkscape:connector-curvature="0"
             style="fill:#ffe6d5;stroke:#000000;stroke-opacity:1;color:#000000;fill-opacity:1;fill-rule:nonzero;stroke-width:1.94435417999999993;marker:none;visibility:visible;display:inline;overflow:visible;enable-background:accumulate"
             d="m 406.0406,488.78283 c -9.57875,-5.32283 -21.07016,-1.77482 -25.79017,7.96281 -4.71999,9.73762 -0.82836,21.86835 8.75038,27.19116 l 37.4956,20.83597 -19.55145,38.93494 c -4.85202,9.66307 -1.10828,21.81794 8.40426,27.27493 9.51256,5.45698 21.08696,2.09356 25.93899,-7.56951 l 27.50116,-54.77537 c 0.41486,-0.64544 0.81614,-1.33357 1.16165,-2.04634 4.71999,-9.73762 0.78844,-21.85602 -8.79031,-27.17886 L 406.0406,488.78283 z"
             id="rect3060"
             transform="translate(-3.0172632e-7,-2.6086503e-6)" />
          <g
             transform="matrix(-1,0,0,1,721.4538,-8.5564862)"
             id="g4108">
            <path
               transform="matrix(3.8269333,0,0,3.8269333,246.28191,415.00707)"
               inkscape:connector-curvature="0"
               id="path4110"
               d="M 12.563772,36.32742 10.354064,35.506671"
               style="fill:none;stroke:#000000;stroke-width:0.25;stroke-linecap:butt;stroke-linejoin:miter;stroke-opacity:1" />
            <path
               style="fill:none;stroke:#000000;stroke-width:0.95673335;stroke-linecap:butt;stroke-linejoin:miter;stroke-opacity:1"
               d="m 294.08584,553.32704 -8.86927,1.64689"
               id="path4112"
               inkscape:connector-curvature="0" />
          </g>
        </g>
        <g
           id="g4201"
           transform="matrix(0.99319832,0.11643495,0.11643495,-0.99319832,-54.337056,967.64954)">
          <path
             id="path4203"
             d="m 242.75242,514.68953 c -10.79001,-1.35422 -18.90497,-8.00481 -18.21241,-14.92589 0.0568,-0.56817 0.18073,-1.12511 0.34898,-1.65851 l 4.72138,-38.95179 c 0.84174,-6.90169 10.18506,-11.28262 20.96446,-9.83279 10.7794,1.44981 18.79574,8.16786 17.954,15.06956 l -3.27586,20.94206 c 14.02998,4.05473 33.42898,-10.43275 42.08995,12.16418 3.89197,10.15436 18.93319,8.02792 18.24061,14.94903 -0.69257,6.92108 -9.95084,11.39118 -20.74086,10.03696 z"
             style="color:#000000;fill:#ffe6d5;fill-opacity:1;fill-rule:nonzero;stroke:#000000;stroke-width:1.55385947;stroke-opacity:1;marker:none;visibility:visible;display:inline;overflow:visible;enable-background:accumulate"
             inkscape:connector-curvature="0"
             sodipodi:nodetypes="scccsccssss" />
          <g
             id="g4205"
             transform="translate(-29.294796,-68.90206)">
            <path
               inkscape:connector-curvature="0"
               id="path4207"
               d="M 12.563772,36.32742 10.354064,35.506671"
               style="fill:none;stroke:#000000;stroke-width:0.25;stroke-linecap:butt;stroke-linejoin:miter;stroke-opacity:1"
               transform="matrix(3.8269333,0,0,3.8269333,246.28191,415.00707)" />
            <path
               style="fill:none;stroke:#000000;stroke-width:0.95673335;stroke-linecap:butt;stroke-linejoin:miter;stroke-opacity:1"
               d="m 294.08584,553.32704 -8.86927,1.64689"
               id="path4209"
               inkscape:connector-curvature="0" />
          </g>
        </g>
        <g
           id="g3304"
           transform="translate(-5.2534237,0)"
           style="fill:#164450">
          <rect
             transform="matrix(-0.02055307,0.99978876,0.9999567,0.00930616,0,0)"
             style="color:#000000;fill:#164450;fill-opacity:1;fill-rule:nonzero;stroke:#000000;stroke-width:2.00006318;stroke-opacity:1;marker:none;visibility:visible;display:inline;overflow:visible;enable-background:accumulate"
             id="rect3099"
             width="70.523788"
             height="40.403988"
             x="509.51654"
             y="375.85733"
             ry="20.201994" />
          <rect
             ry="20.201994"
             y="315.86621"
             x="510.07492"
             height="40.403988"
             width="70.523788"
             id="rect3101"
             style="color:#000000;fill:#164450;fill-opacity:1;fill-rule:nonzero;stroke:#000000;stroke-width:2.00006318;stroke-opacity:1;marker:none;visibility:visible;display:inline;overflow:visible;enable-background:accumulate"
             transform="matrix(-0.02055307,0.99978876,0.9999567,0.00930616,0,0)" />
        </g>
        <g
           id="g3103"
           style="fill:#ffe6d5;stroke:#000000;stroke-opacity:1">
          <g
             id="g3265">
            <path
               sodipodi:type="arc"
               style="color:#000000;fill:#ffe6d5;fill-opacity:1;fill-rule:nonzero;stroke:#000000;stroke-width:1.40133524;stroke-opacity:1;marker:none;visibility:visible;display:inline;overflow:visible;enable-background:accumulate"
               id="path3052"
               sodipodi:cx="327.28943"
               sodipodi:cy="472.53461"
               sodipodi:rx="48.487324"
               sodipodi:ry="48.487324"
               d="m 375.77675,472.53461 c 0,26.77881 -21.70851,48.48732 -48.48732,48.48732 -26.77881,0 -48.48733,-21.70851 -48.48733,-48.48732 0,-26.77881 21.70852,-48.48733 48.48733,-48.48733 26.77881,0 48.48732,21.70852 48.48732,48.48733 z"
               transform="matrix(1.4272103,0,0,1.4272103,-114.56761,-186.71938)" />
          </g>
        </g>
        <g
           id="g3070"
           transform="translate(0,-12.300857)">
          <path
             transform="matrix(1.6,0,0,1.6,-203.14168,-331.503)"
             d="m 341.93665,540.71991 c 0,4.18419 -3.39196,7.57614 -7.57615,7.57614 -4.18418,0 -7.57614,-3.39195 -7.57614,-7.57614 0,-4.18419 3.39196,-7.57614 7.57614,-7.57614 4.18419,0 7.57615,3.39195 7.57615,7.57614 z"
             sodipodi:ry="7.5761442"
             sodipodi:rx="7.5761442"
             sodipodi:cy="540.71991"
             sodipodi:cx="334.3605"
             id="path3064"
             style="color:#000000;fill:#ffffff;fill-opacity:1;fill-rule:nonzero;stroke:none;stroke-width:1;marker:none;visibility:visible;display:inline;overflow:visible;enable-background:accumulate"
             sodipodi:type="arc" />
          <path
             transform="translate(-2.5253814,-0.50507627)"
             d="m 339.41127,540.71991 c 0,2.51051 -2.26131,4.54569 -5.05077,4.54569 -2.78946,0 -5.05076,-2.03518 -5.05076,-4.54569 0,-2.51051 2.2613,-4.54569 5.05076,-4.54569 2.78946,0 5.05077,2.03518 5.05077,4.54569 z"
             sodipodi:ry="4.5456862"
             sodipodi:rx="5.0507627"
             sodipodi:cy="540.71991"
             sodipodi:cx="334.3605"
             id="path3068"
             style="color:#000000;fill:#000000;fill-opacity:1;fill-rule:nonzero;stroke:none;stroke-width:1;marker:none;visibility:visible;display:inline;overflow:visible;enable-background:accumulate"
             sodipodi:type="arc" />
        </g>
        <path
           style="fill:#ffffff;stroke:#000000;stroke-width:1.93517709px;stroke-linecap:butt;stroke-linejoin:miter;stroke-opacity:1"
           d="m 336.82989,542.20306 3.4961,7.62067 21.02642,0.15902 2.81272,-7.26715 z"
           id="path3326"
           inkscape:connector-curvature="0"
           sodipodi:nodetypes="cccc" />
        <g
           transform="translate(0,-12.300857)"
           id="g4155">
          <path
             sodipodi:type="arc"
             style="color:#000000;fill:#ffffff;fill-opacity:1;fill-rule:nonzero;stroke:none;stroke-width:1;marker:none;visibility:visible;display:inline;overflow:visible;enable-background:accumulate"
             id="path4157"
             sodipodi:cx="334.3605"
             sodipodi:cy="540.71991"
             sodipodi:rx="7.5761442"
             sodipodi:ry="7.5761442"
             d="m 341.93665,540.71991 c 0,4.18419 -3.39196,7.57614 -7.57615,7.57614 -4.18418,0 -7.57614,-3.39195 -7.57614,-7.57614 0,-4.18419 3.39196,-7.57614 7.57614,-7.57614 4.18419,0 7.57615,3.39195 7.57615,7.57614 z"
             transform="matrix(1.6,0,0,1.6,-203.14168,-331.503)" />
          <path
             sodipodi:type="arc"
             style="color:#000000;fill:#000000;fill-opacity:1;fill-rule:nonzero;stroke:none;stroke-width:1;marker:none;visibility:visible;display:inline;overflow:visible;enable-background:accumulate"
             id="path4159"
             sodipodi:cx="334.3605"
             sodipodi:cy="540.71991"
             sodipodi:rx="5.0507627"
             sodipodi:ry="4.5456862"
             d="m 339.41127,540.71991 c 0,2.51051 -2.26131,4.54569 -5.05077,4.54569 -2.78946,0 -5.05076,-2.03518 -5.05076,-4.54569 0,-2.51051 2.2613,-4.54569 5.05076,-4.54569 2.78946,0 5.05077,2.03518 5.05077,4.54569 z"
             transform="translate(-2.5253814,-0.50507627)" />
        </g>
        <g
           id="g4161"
           transform="translate(0,-12.300857)">
          <path
             sodipodi:type="arc"
             style="color:#000000;fill:#000000;fill-opacity:1;fill-rule:nonzero;stroke:none;stroke-width:1;marker:none;visibility:visible;display:inline;overflow:visible;enable-background:accumulate"
             id="path4167"
             sodipodi:cx="334.3605"
             sodipodi:cy="540.71991"
             sodipodi:rx="7.5761442"
             sodipodi:ry="7.5761442"
             d="m 341.93665,540.71991 c 0,4.18419 -3.39196,7.57614 -7.57615,7.57614 -4.18418,0 -7.57614,-3.39195 -7.57614,-7.57614 0,-4.18419 3.39196,-7.57614 7.57614,-7.57614 4.18419,0 7.57615,3.39195 7.57615,7.57614 z"
             transform="matrix(1.9157059,0,0,1.9157059,-308.70126,-502.21146)" />
          <path
             transform="matrix(1.6,0,0,1.6,-203.14168,-331.503)"
             d="m 341.93665,540.71991 c 0,4.18419 -3.39196,7.57614 -7.57615,7.57614 -4.18418,0 -7.57614,-3.39195 -7.57614,-7.57614 0,-4.18419 3.39196,-7.57614 7.57614,-7.57614 4.18419,0 7.57615,3.39195 7.57615,7.57614 z"
             sodipodi:ry="7.5761442"
             sodipodi:rx="7.5761442"
             sodipodi:cy="540.71991"
             sodipodi:cx="334.3605"
             id="path4163"
             style="color:#000000;fill:#ffffff;fill-opacity:1;fill-rule:nonzero;stroke:none;stroke-width:1;marker:none;visibility:visible;display:inline;overflow:visible;enable-background:accumulate"
             sodipodi:type="arc" />
          <path
             transform="translate(-2.5253814,-0.50507627)"
             d="m 339.41127,540.71991 c 0,2.51051 -2.26131,4.54569 -5.05077,4.54569 -2.78946,0 -5.05076,-2.03518 -5.05076,-4.54569 0,-2.51051 2.2613,-4.54569 5.05076,-4.54569 2.78946,0 5.05077,2.03518 5.05077,4.54569 z"
             sodipodi:ry="4.5456862"
             sodipodi:rx="5.0507627"
             sodipodi:cy="540.71991"
             sodipodi:cx="334.3605"
             id="path4165"
             style="color:#000000;fill:#000000;fill-opacity:1;fill-rule:nonzero;stroke:none;stroke-width:1;marker:none;visibility:visible;display:inline;overflow:visible;enable-background:accumulate"
             sodipodi:type="arc" />
        </g>
        <g
           transform="translate(38.269331,-12.300857)"
           id="g4169">
          <path
             transform="matrix(1.9157059,0,0,1.9157059,-308.70126,-502.21146)"
             d="m 341.93665,540.71991 c 0,4.18419 -3.39196,7.57614 -7.57615,7.57614 -4.18418,0 -7.57614,-3.39195 -7.57614,-7.57614 0,-4.18419 3.39196,-7.57614 7.57614,-7.57614 4.18419,0 7.57615,3.39195 7.57615,7.57614 z"
             sodipodi:ry="7.5761442"
             sodipodi:rx="7.5761442"
             sodipodi:cy="540.71991"
             sodipodi:cx="334.3605"
             id="path4171"
             style="color:#000000;fill:#000000;fill-opacity:1;fill-rule:nonzero;stroke:none;stroke-width:1;marker:none;visibility:visible;display:inline;overflow:visible;enable-background:accumulate"
             sodipodi:type="arc" />
          <path
             sodipodi:type="arc"
             style="color:#000000;fill:#ffffff;fill-opacity:1;fill-rule:nonzero;stroke:none;stroke-width:1;marker:none;visibility:visible;display:inline;overflow:visible;enable-background:accumulate"
             id="path4173"
             sodipodi:cx="334.3605"
             sodipodi:cy="540.71991"
             sodipodi:rx="7.5761442"
             sodipodi:ry="7.5761442"
             d="m 341.93665,540.71991 c 0,4.18419 -3.39196,7.57614 -7.57615,7.57614 -4.18418,0 -7.57614,-3.39195 -7.57614,-7.57614 0,-4.18419 3.39196,-7.57614 7.57614,-7.57614 4.18419,0 7.57615,3.39195 7.57615,7.57614 z"
             transform="matrix(1.6,0,0,1.6,-203.14168,-331.503)" />
          <path
             sodipodi:type="arc"
             style="color:#000000;fill:#000000;fill-opacity:1;fill-rule:nonzero;stroke:none;stroke-width:1;marker:none;visibility:visible;display:inline;overflow:visible;enable-background:accumulate"
             id="path4175"
             sodipodi:cx="334.3605"
             sodipodi:cy="540.71991"
             sodipodi:rx="5.0507627"
             sodipodi:ry="4.5456862"
             d="m 339.41127,540.71991 c 0,2.51051 -2.26131,4.54569 -5.05077,4.54569 -2.78946,0 -5.05076,-2.03518 -5.05076,-4.54569 0,-2.51051 2.2613,-4.54569 5.05076,-4.54569 2.78946,0 5.05077,2.03518 5.05077,4.54569 z"
             transform="translate(-2.5253814,-0.50507627)" />
        </g>
      </g>
      <path
         style="fill:#1a1a1a;stroke:#000000;stroke-width:1px;stroke-linecap:butt;stroke-linejoin:miter;stroke-opacity:1"
         d="M 7.9549513,15.680448 14.394674,4.1899629 18.940361,1.4120434 C 23.738585,0.61233929 21.85636,-1.1284772 32.57742,1.0332362 l 5.303301,0.5050763 c 2.453852,1.0711787 4.668613,2.182206 3.156727,3.9143411 l 3.788072,3.4092648 c 0.589255,6.8167896 2.062394,1.6414976 2.65165,3.2829956 l 1.136422,5.42957 -1.894037,7.071068 -3.788072,-6.565992 -3.030458,4.419418 -3.788071,-2.904189 -3.030458,0.757615 -1.767767,2.777919 -4.671956,1.515229 -2.525381,-5.555839 -2.399112,5.050763 -3.661803,-2.146574 0.378807,-3.914341 -3.535534,1.894035 -3.788072,-1.515228 0.505076,-3.156727 z"
         id="path4183"
         inkscape:connector-curvature="0"
         transform="matrix(4.4876334,0,0,4.4876334,249.21426,356.97383)"
         sodipodi:nodetypes="cccccccccccccccccccccccc" />
    </g>
    <path
       style="fill:none;stroke:#000000;stroke-width:0.98903972px;stroke-linecap:round;stroke-linejoin:miter;stroke-opacity:1"
       d="m 236.25247,571.49953 2.49126,0.0167"
       id="path4177"
       inkscape:connector-curvature="0" />
    <path
       style="fill:none;stroke:#000000;stroke-width:0.95284039px;stroke-linecap:round;stroke-linejoin:round;stroke-opacity:1"
       d="m 228.74777,570.32519 -8.57394,-7.72573"
       id="path4179"
       inkscape:connector-curvature="0" />
    <path
       style="fill:none;stroke:#000000;stroke-width:1.06803501px;stroke-linecap:round;stroke-linejoin:round;stroke-opacity:1"
       d="m 246.3475,570.58009 9.17303,-7.56589"
       id="path4181"
       inkscape:connector-curvature="0" />
  </g>
</svg>
