<?xml version="1.0" encoding="UTF-8" standalone="no"?>
<!-- Created with Inkscape (http://www.inkscape.org/) -->

<svg
   xmlns:dc="http://purl.org/dc/elements/1.1/"
   xmlns:cc="http://creativecommons.org/ns#"
   xmlns:rdf="http://www.w3.org/1999/02/22-rdf-syntax-ns#"
   xmlns:svg="http://www.w3.org/2000/svg"
   xmlns="http://www.w3.org/2000/svg"
   xmlns:sodipodi="http://sodipodi.sourceforge.net/DTD/sodipodi-0.dtd"
   xmlns:inkscape="http://www.inkscape.org/namespaces/inkscape"
   width="64.002373"
   height="31.997017"
   id="svg2"
   version="1.1"
   inkscape:version="0.48.4 r9939"
   sodipodi:docname="player.svg"
   inkscape:export-filename="/home/jeremy/IF/Games/game_jams/ludum_dare/26/assets/sprites/player.png"
   inkscape:export-xdpi="90"
   inkscape:export-ydpi="90">
  <defs
     id="defs4" />
  <sodipodi:namedview
     id="base"
     pagecolor="#ffffff"
     bordercolor="#666666"
     borderopacity="1.0"
     inkscape:pageopacity="0.0"
     inkscape:pageshadow="2"
     inkscape:zoom="5.6"
     inkscape:cx="38.064347"
     inkscape:cy="9.2265639"
     inkscape:document-units="px"
     inkscape:current-layer="layer1"
     showgrid="false"
     inkscape:window-width="1600"
     inkscape:window-height="880"
     inkscape:window-x="-2"
     inkscape:window-y="-3"
     inkscape:window-maximized="1"
     fit-margin-top="0"
     fit-margin-left="0"
     fit-margin-right="0"
     fit-margin-bottom="0" />
  <metadata
     id="metadata7">
    <rdf:RDF>
      <cc:Work
         rdf:about="">
        <dc:format>image/svg+xml</dc:format>
        <dc:type
           rdf:resource="http://purl.org/dc/dcmitype/StillImage" />
        <dc:title></dc:title>
      </cc:Work>
    </rdf:RDF>
  </metadata>
  <g
     inkscape:label="Layer 1"
     inkscape:groupmode="layer"
     id="layer1"
     transform="translate(-169.75177,-388.99775)">
    <g
       id="g3030"
       transform="matrix(0.20294833,0,0,0.2053282,135.30188,334.55362)">
      <path
         transform="matrix(0.88136278,-0.65705733,0.59346091,0.97581132,-154.94756,174.85535)"
         d="m 275.71429,342.36218 c 0,9.46774 -30.38068,17.14286 -67.85714,17.14286 -37.47647,0 -67.85714,-7.67512 -67.85714,-17.14286 0,-9.46774 30.38067,-17.14285 67.85714,-17.14285 37.47646,0 67.85714,7.67511 67.85714,17.14285 z"
         sodipodi:ry="17.142857"
         sodipodi:rx="67.85714"
         sodipodi:cy="342.36218"
         sodipodi:cx="207.85715"
         id="path2987"
         style="color:#000000;fill:#333333;fill-opacity:1;fill-rule:nonzero;stroke:#000000;stroke-width:1.78886747;stroke-opacity:1;marker:none;visibility:visible;display:inline;overflow:visible;enable-background:accumulate"
         sodipodi:type="arc" />
      <path
         sodipodi:type="arc"
         style="color:#000000;fill:#333333;fill-opacity:1;fill-rule:nonzero;stroke:#000000;stroke-width:1.78886747;stroke-opacity:1;marker:none;visibility:visible;display:inline;overflow:visible;enable-background:accumulate"
         id="path2989"
         sodipodi:cx="207.85715"
         sodipodi:cy="342.36218"
         sodipodi:rx="67.85714"
         sodipodi:ry="17.142857"
         d="m 275.71429,342.36218 c 0,9.46774 -30.38068,17.14286 -67.85714,17.14286 -37.47647,0 -67.85714,-7.67512 -67.85714,-17.14286 0,-9.46774 30.38067,-17.14285 67.85714,-17.14285 37.47646,0 67.85714,7.67511 67.85714,17.14285 z"
         transform="matrix(-0.88136278,-0.65705733,-0.59346091,0.97581132,809.80469,174.85535)" />
      <path
         d="m 389.99999,332.36218 c 0,36.293 -29.42129,65.71429 -65.71428,65.71429 -36.293,0 -65.71429,-29.42129 -65.71429,-65.71429 0,-36.293 29.42129,-65.71428 65.71429,-65.71428 36.29299,0 65.71428,29.42128 65.71428,65.71428 z"
         sodipodi:ry="65.714287"
         sodipodi:rx="65.714287"
         sodipodi:cy="332.36218"
         sodipodi:cx="324.28571"
         id="path2985"
         style="color:#000000;fill:#333333;fill-opacity:1;fill-rule:nonzero;stroke:#000000;stroke-width:3;stroke-opacity:1;marker:none;visibility:visible;display:inline;overflow:visible;enable-background:accumulate"
         sodipodi:type="arc" />
      <g
         id="g3001">
        <path
           sodipodi:type="arc"
           style="color:#000000;fill:#ffffff;fill-opacity:1;fill-rule:nonzero;stroke:none;stroke-width:1;marker:none;visibility:visible;display:inline;overflow:visible;enable-background:accumulate"
           id="path2993"
           sodipodi:cx="307.3389"
           sodipodi:cy="381.62088"
           sodipodi:rx="8.8388348"
           sodipodi:ry="8.0812206"
           d="m 316.17773,381.62088 c 0,4.46314 -3.95728,8.08122 -8.83883,8.08122 -4.88156,0 -8.83884,-3.61808 -8.83884,-8.08122 0,-4.46313 3.95728,-8.08122 8.83884,-8.08122 4.88155,0 8.83883,3.61809 8.83883,8.08122 z" />
        <path
           sodipodi:type="arc"
           style="color:#000000;fill:#000000;fill-opacity:1;fill-rule:nonzero;stroke:none;stroke-width:1;marker:none;visibility:visible;display:inline;overflow:visible;enable-background:accumulate"
           id="path2999"
           sodipodi:cx="307.5"
           sodipodi:cy="386.82648"
           sodipodi:rx="2.5"
           sodipodi:ry="2.5"
           d="m 310,386.82648 c 0,1.38071 -1.11929,2.5 -2.5,2.5 -1.38071,0 -2.5,-1.11929 -2.5,-2.5 0,-1.38071 1.11929,-2.5 2.5,-2.5 1.38071,0 2.5,1.11929 2.5,2.5 z"
           transform="translate(-0.53571429,-0.17857143)" />
      </g>
      <g
         transform="translate(30,0)"
         id="g3005">
        <path
           d="m 316.17773,381.62088 c 0,4.46314 -3.95728,8.08122 -8.83883,8.08122 -4.88156,0 -8.83884,-3.61808 -8.83884,-8.08122 0,-4.46313 3.95728,-8.08122 8.83884,-8.08122 4.88155,0 8.83883,3.61809 8.83883,8.08122 z"
           sodipodi:ry="8.0812206"
           sodipodi:rx="8.8388348"
           sodipodi:cy="381.62088"
           sodipodi:cx="307.3389"
           id="path3007"
           style="color:#000000;fill:#ffffff;fill-opacity:1;fill-rule:nonzero;stroke:none;stroke-width:1;marker:none;visibility:visible;display:inline;overflow:visible;enable-background:accumulate"
           sodipodi:type="arc" />
        <path
           transform="translate(-0.53571429,-0.17857143)"
           d="m 310,386.82648 c 0,1.38071 -1.11929,2.5 -2.5,2.5 -1.38071,0 -2.5,-1.11929 -2.5,-2.5 0,-1.38071 1.11929,-2.5 2.5,-2.5 1.38071,0 2.5,1.11929 2.5,2.5 z"
           sodipodi:ry="2.5"
           sodipodi:rx="2.5"
           sodipodi:cy="386.82648"
           sodipodi:cx="307.5"
           id="path3009"
           style="color:#000000;fill:#000000;fill-opacity:1;fill-rule:nonzero;stroke:none;stroke-width:1;marker:none;visibility:visible;display:inline;overflow:visible;enable-background:accumulate"
           sodipodi:type="arc" />
      </g>
    </g>
  </g>
</svg>
